<svg xmlns="http://www.w3.org/2000/svg" width="800" height="600">
  <rect width="100%" height="100%" fill="white" />
  <text x="400.0" y="28" text-anchor="middle" font-size="18" font-family="Arial">Predicted vs Expected: gbm_quantile</text>
  <line x1="60" y1="540" x2="740" y2="540" stroke="#222" />
  <line x1="60" y1="60" x2="60" y2="540" stroke="#222" />
  <line x1="60.00" y1="540.00" x2="740.00" y2="60.00" stroke="#666" stroke-dasharray="6,6" />
  <circle cx="448.43" cy="366.86" r="3" fill="#1f77b4" fill-opacity="0.7" /><circle cx="70.22" cy="454.82" r="3" fill="#1f77b4" fill-opacity="0.7" /><circle cx="248.29" cy="428.17" r="3" fill="#1f77b4" fill-opacity="0.7" /><circle cx="98.81" cy="501.90" r="3" fill="#1f77b4" fill-opacity="0.7" /><circle cx="237.72" cy="450.91" r="3" fill="#1f77b4" fill-opacity="0.7" /><circle cx="238.34" cy="453.46" r="3" fill="#1f77b4" fill-opacity="0.7" /><circle cx="66.40" cy="489.03" r="3" fill="#1f77b4" fill-opacity="0.7" /><circle cx="73.96" cy="462.45" r="3" fill="#1f77b4" fill-opacity="0.7" /><circle cx="273.12" cy="461.70" r="3" fill="#1f77b4" fill-opacity="0.7" /><circle cx="523.39" cy="429.82" r="3" fill="#1f77b4" fill-opacity="0.7" /><circle cx="274.82" cy="432.32" r="3" fill="#1f77b4" fill-opacity="0.7" /><circle cx="181.04" cy="448.41" r="3" fill="#1f77b4" fill-opacity="0.7" /><circle cx="401.43" cy="476.42" r="3" fill="#1f77b4" fill-opacity="0.7" /><circle cx="667.12" cy="344.05" r="3" fill="#1f77b4" fill-opacity="0.7" /><circle cx="571.55" cy="490.29" r="3" fill="#1f77b4" fill-opacity="0.7" /><circle cx="479.76" cy="452.72" r="3" fill="#1f77b4" fill-opacity="0.7" /><circle cx="245.49" cy="501.99" r="3" fill="#1f77b4" fill-opacity="0.7" /><circle cx="187.48" cy="481.07" r="3" fill="#1f77b4" fill-opacity="0.7" /><circle cx="116.43" cy="422.40" r="3" fill="#1f77b4" fill-opacity="0.7" /><circle cx="740.00" cy="411.77" r="3" fill="#1f77b4" fill-opacity="0.7" /><circle cx="616.34" cy="450.39" r="3" fill="#1f77b4" fill-opacity="0.7" /><circle cx="195.21" cy="435.21" r="3" fill="#1f77b4" fill-opacity="0.7" /><circle cx="435.63" cy="411.33" r="3" fill="#1f77b4" fill-opacity="0.7" /><circle cx="189.56" cy="406.20" r="3" fill="#1f77b4" fill-opacity="0.7" /><circle cx="160.72" cy="464.48" r="3" fill="#1f77b4" fill-opacity="0.7" /><circle cx="657.12" cy="442.78" r="3" fill="#1f77b4" fill-opacity="0.7" /><circle cx="201.98" cy="299.64" r="3" fill="#1f77b4" fill-opacity="0.7" /><circle cx="105.71" cy="459.35" r="3" fill="#1f77b4" fill-opacity="0.7" /><circle cx="479.03" cy="448.39" r="3" fill="#1f77b4" fill-opacity="0.7" /><circle cx="72.22" cy="464.01" r="3" fill="#1f77b4" fill-opacity="0.7" /><circle cx="680.60" cy="448.43" r="3" fill="#1f77b4" fill-opacity="0.7" /><circle cx="340.98" cy="422.59" r="3" fill="#1f77b4" fill-opacity="0.7" /><circle cx="138.28" cy="458.80" r="3" fill="#1f77b4" fill-opacity="0.7" /><circle cx="317.08" cy="402.98" r="3" fill="#1f77b4" fill-opacity="0.7" /><circle cx="61.75" cy="434.30" r="3" fill="#1f77b4" fill-opacity="0.7" /><circle cx="186.36" cy="432.60" r="3" fill="#1f77b4" fill-opacity="0.7" /><circle cx="119.42" cy="434.40" r="3" fill="#1f77b4" fill-opacity="0.7" /><circle cx="418.28" cy="455.85" r="3" fill="#1f77b4" fill-opacity="0.7" /><circle cx="207.93" cy="459.49" r="3" fill="#1f77b4" fill-opacity="0.7" /><circle cx="281.76" cy="413.14" r="3" fill="#1f77b4" fill-opacity="0.7" /><circle cx="124.99" cy="415.26" r="3" fill="#1f77b4" fill-opacity="0.7" /><circle cx="60.58" cy="299.79" r="3" fill="#1f77b4" fill-opacity="0.7" /><circle cx="186.24" cy="528.08" r="3" fill="#1f77b4" fill-opacity="0.7" /><circle cx="198.08" cy="491.88" r="3" fill="#1f77b4" fill-opacity="0.7" /><circle cx="295.10" cy="424.17" r="3" fill="#1f77b4" fill-opacity="0.7" /><circle cx="61.16" cy="482.32" r="3" fill="#1f77b4" fill-opacity="0.7" /><circle cx="167.45" cy="477.18" r="3" fill="#1f77b4" fill-opacity="0.7" /><circle cx="672.83" cy="414.95" r="3" fill="#1f77b4" fill-opacity="0.7" /><circle cx="499.48" cy="323.21" r="3" fill="#1f77b4" fill-opacity="0.7" /><circle cx="138.12" cy="420.69" r="3" fill="#1f77b4" fill-opacity="0.7" /><circle cx="265.02" cy="472.13" r="3" fill="#1f77b4" fill-opacity="0.7" /><circle cx="68.73" cy="469.78" r="3" fill="#1f77b4" fill-opacity="0.7" /><circle cx="145.18" cy="416.08" r="3" fill="#1f77b4" fill-opacity="0.7" /><circle cx="369.11" cy="336.62" r="3" fill="#1f77b4" fill-opacity="0.7" /><circle cx="457.03" cy="391.06" r="3" fill="#1f77b4" fill-opacity="0.7" /><circle cx="123.82" cy="442.10" r="3" fill="#1f77b4" fill-opacity="0.7" /><circle cx="591.58" cy="344.56" r="3" fill="#1f77b4" fill-opacity="0.7" /><circle cx="402.89" cy="332.96" r="3" fill="#1f77b4" fill-opacity="0.7" /><circle cx="72.55" cy="509.47" r="3" fill="#1f77b4" fill-opacity="0.7" /><circle cx="552.97" cy="405.53" r="3" fill="#1f77b4" fill-opacity="0.7" /><circle cx="144.85" cy="419.25" r="3" fill="#1f77b4" fill-opacity="0.7" /><circle cx="233.40" cy="405.47" r="3" fill="#1f77b4" fill-opacity="0.7" /><circle cx="160.31" cy="416.73" r="3" fill="#1f77b4" fill-opacity="0.7" /><circle cx="64.07" cy="413.93" r="3" fill="#1f77b4" fill-opacity="0.7" /><circle cx="174.19" cy="413.49" r="3" fill="#1f77b4" fill-opacity="0.7" /><circle cx="460.75" cy="339.75" r="3" fill="#1f77b4" fill-opacity="0.7" /><circle cx="207.26" cy="358.82" r="3" fill="#1f77b4" fill-opacity="0.7" /><circle cx="211.17" cy="328.91" r="3" fill="#1f77b4" fill-opacity="0.7" /><circle cx="87.18" cy="433.33" r="3" fill="#1f77b4" fill-opacity="0.7" /><circle cx="422.58" cy="489.65" r="3" fill="#1f77b4" fill-opacity="0.7" /><circle cx="281.51" cy="362.82" r="3" fill="#1f77b4" fill-opacity="0.7" /><circle cx="192.84" cy="453.76" r="3" fill="#1f77b4" fill-opacity="0.7" /><circle cx="113.27" cy="422.72" r="3" fill="#1f77b4" fill-opacity="0.7" /><circle cx="62.33" cy="481.64" r="3" fill="#1f77b4" fill-opacity="0.7" /><circle cx="115.35" cy="488.72" r="3" fill="#1f77b4" fill-opacity="0.7" /><circle cx="93.24" cy="472.98" r="3" fill="#1f77b4" fill-opacity="0.7" /><circle cx="105.04" cy="328.75" r="3" fill="#1f77b4" fill-opacity="0.7" /><circle cx="158.81" cy="457.96" r="3" fill="#1f77b4" fill-opacity="0.7" /><circle cx="317.08" cy="360.31" r="3" fill="#1f77b4" fill-opacity="0.7" /><circle cx="71.05" cy="446.37" r="3" fill="#1f77b4" fill-opacity="0.7" /><circle cx="109.74" cy="426.63" r="3" fill="#1f77b4" fill-opacity="0.7" /><circle cx="336.90" cy="438.16" r="3" fill="#1f77b4" fill-opacity="0.7" /><circle cx="376.25" cy="462.89" r="3" fill="#1f77b4" fill-opacity="0.7" /><circle cx="374.69" cy="498.24" r="3" fill="#1f77b4" fill-opacity="0.7" /><circle cx="215.20" cy="468.55" r="3" fill="#1f77b4" fill-opacity="0.7" /><circle cx="84.77" cy="425.06" r="3" fill="#1f77b4" fill-opacity="0.7" /><circle cx="314.38" cy="304.03" r="3" fill="#1f77b4" fill-opacity="0.7" /><circle cx="432.43" cy="354.72" r="3" fill="#1f77b4" fill-opacity="0.7" /><circle cx="309.10" cy="482.20" r="3" fill="#1f77b4" fill-opacity="0.7" /><circle cx="116.39" cy="529.24" r="3" fill="#1f77b4" fill-opacity="0.7" /><circle cx="612.87" cy="347.44" r="3" fill="#1f77b4" fill-opacity="0.7" /><circle cx="171.11" cy="393.43" r="3" fill="#1f77b4" fill-opacity="0.7" /><circle cx="277.07" cy="426.95" r="3" fill="#1f77b4" fill-opacity="0.7" /><circle cx="323.52" cy="482.29" r="3" fill="#1f77b4" fill-opacity="0.7" /><circle cx="428.07" cy="469.53" r="3" fill="#1f77b4" fill-opacity="0.7" /><circle cx="95.32" cy="475.02" r="3" fill="#1f77b4" fill-opacity="0.7" /><circle cx="240.21" cy="410.77" r="3" fill="#1f77b4" fill-opacity="0.7" /><circle cx="186.28" cy="502.50" r="3" fill="#1f77b4" fill-opacity="0.7" /><circle cx="271.75" cy="448.22" r="3" fill="#1f77b4" fill-opacity="0.7" /><circle cx="156.07" cy="441.90" r="3" fill="#1f77b4" fill-opacity="0.7" /><circle cx="68.73" cy="462.48" r="3" fill="#1f77b4" fill-opacity="0.7" /><circle cx="60.00" cy="479.99" r="3" fill="#1f77b4" fill-opacity="0.7" /><circle cx="60.58" cy="331.42" r="3" fill="#1f77b4" fill-opacity="0.7" /><circle cx="264.27" cy="458.40" r="3" fill="#1f77b4" fill-opacity="0.7" /><circle cx="120.33" cy="438.14" r="3" fill="#1f77b4" fill-opacity="0.7" /><circle cx="363.50" cy="407.11" r="3" fill="#1f77b4" fill-opacity="0.7" /><circle cx="112.52" cy="450.54" r="3" fill="#1f77b4" fill-opacity="0.7" /><circle cx="84.85" cy="464.38" r="3" fill="#1f77b4" fill-opacity="0.7" /><circle cx="69.64" cy="459.44" r="3" fill="#1f77b4" fill-opacity="0.7" /><circle cx="105.79" cy="477.07" r="3" fill="#1f77b4" fill-opacity="0.7" /><circle cx="237.34" cy="456.88" r="3" fill="#1f77b4" fill-opacity="0.7" /><circle cx="100.55" cy="460.07" r="3" fill="#1f77b4" fill-opacity="0.7" /><circle cx="98.31" cy="337.65" r="3" fill="#1f77b4" fill-opacity="0.7" /><circle cx="154.41" cy="417.51" r="3" fill="#1f77b4" fill-opacity="0.7" /><circle cx="207.68" cy="369.39" r="3" fill="#1f77b4" fill-opacity="0.7" /><circle cx="130.56" cy="458.50" r="3" fill="#1f77b4" fill-opacity="0.7" />
  <text x="400.0" y="588" text-anchor="middle" font-size="13" font-family="Arial">Expected Value</text>
  <text x="18" y="300.0" text-anchor="middle" font-size="13" font-family="Arial" transform="rotate(-90 18 300.0)">Predicted Value</text>
</svg>
