<svg xmlns="http://www.w3.org/2000/svg" width="800" height="600">
  <rect width="100%" height="100%" fill="white" />
  <text x="400.0" y="28" text-anchor="middle" font-size="18" font-family="Arial">Predicted vs Expected: autogluon_medium</text>
  <line x1="60" y1="540" x2="740" y2="540" stroke="#222" />
  <line x1="60" y1="60" x2="60" y2="540" stroke="#222" />
  <line x1="60.00" y1="540.00" x2="740.00" y2="60.00" stroke="#666" stroke-dasharray="6,6" />
  <circle cx="448.43" cy="414.14" r="3" fill="#1f77b4" fill-opacity="0.7" /><circle cx="70.22" cy="469.26" r="3" fill="#1f77b4" fill-opacity="0.7" /><circle cx="248.29" cy="415.26" r="3" fill="#1f77b4" fill-opacity="0.7" /><circle cx="98.81" cy="479.67" r="3" fill="#1f77b4" fill-opacity="0.7" /><circle cx="237.72" cy="469.12" r="3" fill="#1f77b4" fill-opacity="0.7" /><circle cx="238.34" cy="421.66" r="3" fill="#1f77b4" fill-opacity="0.7" /><circle cx="66.40" cy="484.73" r="3" fill="#1f77b4" fill-opacity="0.7" /><circle cx="73.96" cy="476.58" r="3" fill="#1f77b4" fill-opacity="0.7" /><circle cx="273.12" cy="507.79" r="3" fill="#1f77b4" fill-opacity="0.7" /><circle cx="523.39" cy="475.75" r="3" fill="#1f77b4" fill-opacity="0.7" /><circle cx="274.82" cy="419.43" r="3" fill="#1f77b4" fill-opacity="0.7" /><circle cx="181.04" cy="478.41" r="3" fill="#1f77b4" fill-opacity="0.7" /><circle cx="401.43" cy="413.28" r="3" fill="#1f77b4" fill-opacity="0.7" /><circle cx="667.12" cy="355.33" r="3" fill="#1f77b4" fill-opacity="0.7" /><circle cx="571.55" cy="480.90" r="3" fill="#1f77b4" fill-opacity="0.7" /><circle cx="479.76" cy="474.07" r="3" fill="#1f77b4" fill-opacity="0.7" /><circle cx="245.49" cy="505.70" r="3" fill="#1f77b4" fill-opacity="0.7" /><circle cx="187.48" cy="469.62" r="3" fill="#1f77b4" fill-opacity="0.7" /><circle cx="116.43" cy="418.83" r="3" fill="#1f77b4" fill-opacity="0.7" /><circle cx="740.00" cy="315.70" r="3" fill="#1f77b4" fill-opacity="0.7" /><circle cx="616.34" cy="420.16" r="3" fill="#1f77b4" fill-opacity="0.7" /><circle cx="195.21" cy="423.37" r="3" fill="#1f77b4" fill-opacity="0.7" /><circle cx="435.63" cy="420.91" r="3" fill="#1f77b4" fill-opacity="0.7" /><circle cx="189.56" cy="442.12" r="3" fill="#1f77b4" fill-opacity="0.7" /><circle cx="160.72" cy="471.42" r="3" fill="#1f77b4" fill-opacity="0.7" /><circle cx="657.12" cy="418.67" r="3" fill="#1f77b4" fill-opacity="0.7" /><circle cx="201.98" cy="353.55" r="3" fill="#1f77b4" fill-opacity="0.7" /><circle cx="105.71" cy="421.43" r="3" fill="#1f77b4" fill-opacity="0.7" /><circle cx="479.03" cy="423.68" r="3" fill="#1f77b4" fill-opacity="0.7" /><circle cx="72.22" cy="420.07" r="3" fill="#1f77b4" fill-opacity="0.7" /><circle cx="680.60" cy="422.24" r="3" fill="#1f77b4" fill-opacity="0.7" /><circle cx="340.98" cy="478.66" r="3" fill="#1f77b4" fill-opacity="0.7" /><circle cx="138.28" cy="468.84" r="3" fill="#1f77b4" fill-opacity="0.7" /><circle cx="317.08" cy="356.98" r="3" fill="#1f77b4" fill-opacity="0.7" /><circle cx="61.75" cy="420.46" r="3" fill="#1f77b4" fill-opacity="0.7" /><circle cx="186.36" cy="367.74" r="3" fill="#1f77b4" fill-opacity="0.7" /><circle cx="119.42" cy="464.45" r="3" fill="#1f77b4" fill-opacity="0.7" /><circle cx="418.28" cy="413.62" r="3" fill="#1f77b4" fill-opacity="0.7" /><circle cx="207.93" cy="479.64" r="3" fill="#1f77b4" fill-opacity="0.7" /><circle cx="281.76" cy="423.77" r="3" fill="#1f77b4" fill-opacity="0.7" /><circle cx="124.99" cy="471.30" r="3" fill="#1f77b4" fill-opacity="0.7" /><circle cx="60.58" cy="304.15" r="3" fill="#1f77b4" fill-opacity="0.7" /><circle cx="186.24" cy="495.21" r="3" fill="#1f77b4" fill-opacity="0.7" /><circle cx="198.08" cy="504.61" r="3" fill="#1f77b4" fill-opacity="0.7" /><circle cx="295.10" cy="360.13" r="3" fill="#1f77b4" fill-opacity="0.7" /><circle cx="61.16" cy="467.19" r="3" fill="#1f77b4" fill-opacity="0.7" /><circle cx="167.45" cy="478.76" r="3" fill="#1f77b4" fill-opacity="0.7" /><circle cx="672.83" cy="359.92" r="3" fill="#1f77b4" fill-opacity="0.7" /><circle cx="499.48" cy="349.99" r="3" fill="#1f77b4" fill-opacity="0.7" /><circle cx="138.12" cy="435.49" r="3" fill="#1f77b4" fill-opacity="0.7" /><circle cx="265.02" cy="479.88" r="3" fill="#1f77b4" fill-opacity="0.7" /><circle cx="68.73" cy="481.03" r="3" fill="#1f77b4" fill-opacity="0.7" /><circle cx="145.18" cy="420.42" r="3" fill="#1f77b4" fill-opacity="0.7" /><circle cx="369.11" cy="413.50" r="3" fill="#1f77b4" fill-opacity="0.7" /><circle cx="457.03" cy="430.18" r="3" fill="#1f77b4" fill-opacity="0.7" /><circle cx="123.82" cy="323.20" r="3" fill="#1f77b4" fill-opacity="0.7" /><circle cx="591.58" cy="360.38" r="3" fill="#1f77b4" fill-opacity="0.7" /><circle cx="402.89" cy="368.43" r="3" fill="#1f77b4" fill-opacity="0.7" /><circle cx="72.55" cy="511.98" r="3" fill="#1f77b4" fill-opacity="0.7" /><circle cx="552.97" cy="468.79" r="3" fill="#1f77b4" fill-opacity="0.7" /><circle cx="144.85" cy="413.24" r="3" fill="#1f77b4" fill-opacity="0.7" /><circle cx="233.40" cy="363.10" r="3" fill="#1f77b4" fill-opacity="0.7" /><circle cx="160.31" cy="466.81" r="3" fill="#1f77b4" fill-opacity="0.7" /><circle cx="64.07" cy="359.97" r="3" fill="#1f77b4" fill-opacity="0.7" /><circle cx="174.19" cy="350.03" r="3" fill="#1f77b4" fill-opacity="0.7" /><circle cx="460.75" cy="346.95" r="3" fill="#1f77b4" fill-opacity="0.7" /><circle cx="207.26" cy="416.64" r="3" fill="#1f77b4" fill-opacity="0.7" /><circle cx="211.17" cy="312.24" r="3" fill="#1f77b4" fill-opacity="0.7" /><circle cx="87.18" cy="475.25" r="3" fill="#1f77b4" fill-opacity="0.7" /><circle cx="422.58" cy="517.81" r="3" fill="#1f77b4" fill-opacity="0.7" /><circle cx="281.51" cy="418.16" r="3" fill="#1f77b4" fill-opacity="0.7" /><circle cx="192.84" cy="467.06" r="3" fill="#1f77b4" fill-opacity="0.7" /><circle cx="113.27" cy="476.96" r="3" fill="#1f77b4" fill-opacity="0.7" /><circle cx="62.33" cy="441.83" r="3" fill="#1f77b4" fill-opacity="0.7" /><circle cx="115.35" cy="510.75" r="3" fill="#1f77b4" fill-opacity="0.7" /><circle cx="93.24" cy="512.38" r="3" fill="#1f77b4" fill-opacity="0.7" /><circle cx="105.04" cy="345.70" r="3" fill="#1f77b4" fill-opacity="0.7" /><circle cx="158.81" cy="493.69" r="3" fill="#1f77b4" fill-opacity="0.7" /><circle cx="317.08" cy="346.70" r="3" fill="#1f77b4" fill-opacity="0.7" /><circle cx="71.05" cy="441.87" r="3" fill="#1f77b4" fill-opacity="0.7" /><circle cx="109.74" cy="421.97" r="3" fill="#1f77b4" fill-opacity="0.7" /><circle cx="336.90" cy="466.27" r="3" fill="#1f77b4" fill-opacity="0.7" /><circle cx="376.25" cy="466.08" r="3" fill="#1f77b4" fill-opacity="0.7" /><circle cx="374.69" cy="479.24" r="3" fill="#1f77b4" fill-opacity="0.7" /><circle cx="215.20" cy="473.80" r="3" fill="#1f77b4" fill-opacity="0.7" /><circle cx="84.77" cy="418.87" r="3" fill="#1f77b4" fill-opacity="0.7" /><circle cx="314.38" cy="314.50" r="3" fill="#1f77b4" fill-opacity="0.7" /><circle cx="432.43" cy="385.42" r="3" fill="#1f77b4" fill-opacity="0.7" /><circle cx="309.10" cy="476.51" r="3" fill="#1f77b4" fill-opacity="0.7" /><circle cx="116.39" cy="476.61" r="3" fill="#1f77b4" fill-opacity="0.7" /><circle cx="612.87" cy="325.24" r="3" fill="#1f77b4" fill-opacity="0.7" /><circle cx="171.11" cy="441.68" r="3" fill="#1f77b4" fill-opacity="0.7" /><circle cx="277.07" cy="364.75" r="3" fill="#1f77b4" fill-opacity="0.7" /><circle cx="323.52" cy="534.50" r="3" fill="#1f77b4" fill-opacity="0.7" /><circle cx="428.07" cy="472.59" r="3" fill="#1f77b4" fill-opacity="0.7" /><circle cx="95.32" cy="475.52" r="3" fill="#1f77b4" fill-opacity="0.7" /><circle cx="240.21" cy="421.17" r="3" fill="#1f77b4" fill-opacity="0.7" /><circle cx="186.28" cy="464.82" r="3" fill="#1f77b4" fill-opacity="0.7" /><circle cx="271.75" cy="509.00" r="3" fill="#1f77b4" fill-opacity="0.7" /><circle cx="156.07" cy="479.18" r="3" fill="#1f77b4" fill-opacity="0.7" /><circle cx="68.73" cy="477.82" r="3" fill="#1f77b4" fill-opacity="0.7" /><circle cx="60.00" cy="468.39" r="3" fill="#1f77b4" fill-opacity="0.7" /><circle cx="60.58" cy="368.32" r="3" fill="#1f77b4" fill-opacity="0.7" /><circle cx="264.27" cy="469.75" r="3" fill="#1f77b4" fill-opacity="0.7" /><circle cx="120.33" cy="505.67" r="3" fill="#1f77b4" fill-opacity="0.7" /><circle cx="363.50" cy="469.89" r="3" fill="#1f77b4" fill-opacity="0.7" /><circle cx="112.52" cy="502.81" r="3" fill="#1f77b4" fill-opacity="0.7" /><circle cx="84.85" cy="476.16" r="3" fill="#1f77b4" fill-opacity="0.7" /><circle cx="69.64" cy="467.91" r="3" fill="#1f77b4" fill-opacity="0.7" /><circle cx="105.79" cy="503.06" r="3" fill="#1f77b4" fill-opacity="0.7" /><circle cx="237.34" cy="421.90" r="3" fill="#1f77b4" fill-opacity="0.7" /><circle cx="100.55" cy="423.39" r="3" fill="#1f77b4" fill-opacity="0.7" /><circle cx="98.31" cy="344.61" r="3" fill="#1f77b4" fill-opacity="0.7" /><circle cx="154.41" cy="359.74" r="3" fill="#1f77b4" fill-opacity="0.7" /><circle cx="207.68" cy="363.60" r="3" fill="#1f77b4" fill-opacity="0.7" /><circle cx="130.56" cy="464.21" r="3" fill="#1f77b4" fill-opacity="0.7" />
  <text x="400.0" y="588" text-anchor="middle" font-size="13" font-family="Arial">Expected Value</text>
  <text x="18" y="300.0" text-anchor="middle" font-size="13" font-family="Arial" transform="rotate(-90 18 300.0)">Predicted Value</text>
</svg>
