<svg xmlns="http://www.w3.org/2000/svg" width="800" height="600">
  <rect width="100%" height="100%" fill="white" />
  <text x="400.0" y="28" text-anchor="middle" font-size="18" font-family="Arial">Predicted vs Expected: ridge</text>
  <line x1="60" y1="540" x2="740" y2="540" stroke="#222" />
  <line x1="60" y1="60" x2="60" y2="540" stroke="#222" />
  <line x1="60.00" y1="540.00" x2="740.00" y2="60.00" stroke="#666" stroke-dasharray="6,6" />
  <circle cx="448.43" cy="356.34" r="3" fill="#1f77b4" fill-opacity="0.7" /><circle cx="70.22" cy="411.51" r="3" fill="#1f77b4" fill-opacity="0.7" /><circle cx="248.29" cy="407.55" r="3" fill="#1f77b4" fill-opacity="0.7" /><circle cx="98.81" cy="427.02" r="3" fill="#1f77b4" fill-opacity="0.7" /><circle cx="237.72" cy="422.94" r="3" fill="#1f77b4" fill-opacity="0.7" /><circle cx="238.34" cy="433.61" r="3" fill="#1f77b4" fill-opacity="0.7" /><circle cx="66.40" cy="423.78" r="3" fill="#1f77b4" fill-opacity="0.7" /><circle cx="73.96" cy="442.25" r="3" fill="#1f77b4" fill-opacity="0.7" /><circle cx="273.12" cy="401.51" r="3" fill="#1f77b4" fill-opacity="0.7" /><circle cx="523.39" cy="393.33" r="3" fill="#1f77b4" fill-opacity="0.7" /><circle cx="274.82" cy="425.10" r="3" fill="#1f77b4" fill-opacity="0.7" /><circle cx="181.04" cy="431.95" r="3" fill="#1f77b4" fill-opacity="0.7" /><circle cx="401.43" cy="394.49" r="3" fill="#1f77b4" fill-opacity="0.7" /><circle cx="667.12" cy="366.09" r="3" fill="#1f77b4" fill-opacity="0.7" /><circle cx="571.55" cy="421.14" r="3" fill="#1f77b4" fill-opacity="0.7" /><circle cx="479.76" cy="434.97" r="3" fill="#1f77b4" fill-opacity="0.7" /><circle cx="245.49" cy="393.06" r="3" fill="#1f77b4" fill-opacity="0.7" /><circle cx="187.48" cy="448.51" r="3" fill="#1f77b4" fill-opacity="0.7" /><circle cx="116.43" cy="392.62" r="3" fill="#1f77b4" fill-opacity="0.7" /><circle cx="740.00" cy="355.08" r="3" fill="#1f77b4" fill-opacity="0.7" /><circle cx="616.34" cy="420.93" r="3" fill="#1f77b4" fill-opacity="0.7" /><circle cx="195.21" cy="395.21" r="3" fill="#1f77b4" fill-opacity="0.7" /><circle cx="435.63" cy="398.53" r="3" fill="#1f77b4" fill-opacity="0.7" /><circle cx="189.56" cy="397.90" r="3" fill="#1f77b4" fill-opacity="0.7" /><circle cx="160.72" cy="430.33" r="3" fill="#1f77b4" fill-opacity="0.7" /><circle cx="657.12" cy="380.02" r="3" fill="#1f77b4" fill-opacity="0.7" /><circle cx="201.98" cy="310.96" r="3" fill="#1f77b4" fill-opacity="0.7" /><circle cx="105.71" cy="429.95" r="3" fill="#1f77b4" fill-opacity="0.7" /><circle cx="479.03" cy="420.22" r="3" fill="#1f77b4" fill-opacity="0.7" /><circle cx="72.22" cy="438.56" r="3" fill="#1f77b4" fill-opacity="0.7" /><circle cx="680.60" cy="422.36" r="3" fill="#1f77b4" fill-opacity="0.7" /><circle cx="340.98" cy="396.15" r="3" fill="#1f77b4" fill-opacity="0.7" /><circle cx="138.28" cy="434.12" r="3" fill="#1f77b4" fill-opacity="0.7" /><circle cx="317.08" cy="369.45" r="3" fill="#1f77b4" fill-opacity="0.7" /><circle cx="61.75" cy="425.24" r="3" fill="#1f77b4" fill-opacity="0.7" /><circle cx="186.36" cy="372.46" r="3" fill="#1f77b4" fill-opacity="0.7" /><circle cx="119.42" cy="420.16" r="3" fill="#1f77b4" fill-opacity="0.7" /><circle cx="418.28" cy="423.93" r="3" fill="#1f77b4" fill-opacity="0.7" /><circle cx="207.93" cy="410.68" r="3" fill="#1f77b4" fill-opacity="0.7" /><circle cx="281.76" cy="406.77" r="3" fill="#1f77b4" fill-opacity="0.7" /><circle cx="124.99" cy="427.32" r="3" fill="#1f77b4" fill-opacity="0.7" /><circle cx="60.58" cy="364.13" r="3" fill="#1f77b4" fill-opacity="0.7" /><circle cx="186.24" cy="401.03" r="3" fill="#1f77b4" fill-opacity="0.7" /><circle cx="198.08" cy="461.45" r="3" fill="#1f77b4" fill-opacity="0.7" /><circle cx="295.10" cy="385.36" r="3" fill="#1f77b4" fill-opacity="0.7" /><circle cx="61.16" cy="419.13" r="3" fill="#1f77b4" fill-opacity="0.7" /><circle cx="167.45" cy="423.88" r="3" fill="#1f77b4" fill-opacity="0.7" /><circle cx="672.83" cy="374.83" r="3" fill="#1f77b4" fill-opacity="0.7" /><circle cx="499.48" cy="388.39" r="3" fill="#1f77b4" fill-opacity="0.7" /><circle cx="138.12" cy="403.70" r="3" fill="#1f77b4" fill-opacity="0.7" /><circle cx="265.02" cy="402.05" r="3" fill="#1f77b4" fill-opacity="0.7" /><circle cx="68.73" cy="399.92" r="3" fill="#1f77b4" fill-opacity="0.7" /><circle cx="145.18" cy="405.34" r="3" fill="#1f77b4" fill-opacity="0.7" /><circle cx="369.11" cy="333.24" r="3" fill="#1f77b4" fill-opacity="0.7" /><circle cx="457.03" cy="438.55" r="3" fill="#1f77b4" fill-opacity="0.7" /><circle cx="123.82" cy="348.03" r="3" fill="#1f77b4" fill-opacity="0.7" /><circle cx="591.58" cy="341.93" r="3" fill="#1f77b4" fill-opacity="0.7" /><circle cx="402.89" cy="412.43" r="3" fill="#1f77b4" fill-opacity="0.7" /><circle cx="72.55" cy="457.22" r="3" fill="#1f77b4" fill-opacity="0.7" /><circle cx="552.97" cy="420.42" r="3" fill="#1f77b4" fill-opacity="0.7" /><circle cx="144.85" cy="383.54" r="3" fill="#1f77b4" fill-opacity="0.7" /><circle cx="233.40" cy="368.93" r="3" fill="#1f77b4" fill-opacity="0.7" /><circle cx="160.31" cy="409.72" r="3" fill="#1f77b4" fill-opacity="0.7" /><circle cx="64.07" cy="408.05" r="3" fill="#1f77b4" fill-opacity="0.7" /><circle cx="174.19" cy="352.24" r="3" fill="#1f77b4" fill-opacity="0.7" /><circle cx="460.75" cy="392.55" r="3" fill="#1f77b4" fill-opacity="0.7" /><circle cx="207.26" cy="414.11" r="3" fill="#1f77b4" fill-opacity="0.7" /><circle cx="211.17" cy="372.08" r="3" fill="#1f77b4" fill-opacity="0.7" /><circle cx="87.18" cy="417.26" r="3" fill="#1f77b4" fill-opacity="0.7" /><circle cx="422.58" cy="438.78" r="3" fill="#1f77b4" fill-opacity="0.7" /><circle cx="281.51" cy="396.27" r="3" fill="#1f77b4" fill-opacity="0.7" /><circle cx="192.84" cy="405.59" r="3" fill="#1f77b4" fill-opacity="0.7" /><circle cx="113.27" cy="476.28" r="3" fill="#1f77b4" fill-opacity="0.7" /><circle cx="62.33" cy="457.69" r="3" fill="#1f77b4" fill-opacity="0.7" /><circle cx="115.35" cy="433.43" r="3" fill="#1f77b4" fill-opacity="0.7" /><circle cx="93.24" cy="441.37" r="3" fill="#1f77b4" fill-opacity="0.7" /><circle cx="105.04" cy="369.63" r="3" fill="#1f77b4" fill-opacity="0.7" /><circle cx="158.81" cy="429.01" r="3" fill="#1f77b4" fill-opacity="0.7" /><circle cx="317.08" cy="399.12" r="3" fill="#1f77b4" fill-opacity="0.7" /><circle cx="71.05" cy="391.82" r="3" fill="#1f77b4" fill-opacity="0.7" /><circle cx="109.74" cy="427.08" r="3" fill="#1f77b4" fill-opacity="0.7" /><circle cx="336.90" cy="394.70" r="3" fill="#1f77b4" fill-opacity="0.7" /><circle cx="376.25" cy="430.76" r="3" fill="#1f77b4" fill-opacity="0.7" /><circle cx="374.69" cy="464.93" r="3" fill="#1f77b4" fill-opacity="0.7" /><circle cx="215.20" cy="407.72" r="3" fill="#1f77b4" fill-opacity="0.7" /><circle cx="84.77" cy="418.46" r="3" fill="#1f77b4" fill-opacity="0.7" /><circle cx="314.38" cy="341.03" r="3" fill="#1f77b4" fill-opacity="0.7" /><circle cx="432.43" cy="368.65" r="3" fill="#1f77b4" fill-opacity="0.7" /><circle cx="309.10" cy="386.89" r="3" fill="#1f77b4" fill-opacity="0.7" /><circle cx="116.39" cy="472.70" r="3" fill="#1f77b4" fill-opacity="0.7" /><circle cx="612.87" cy="386.25" r="3" fill="#1f77b4" fill-opacity="0.7" /><circle cx="171.11" cy="389.82" r="3" fill="#1f77b4" fill-opacity="0.7" /><circle cx="277.07" cy="407.30" r="3" fill="#1f77b4" fill-opacity="0.7" /><circle cx="323.52" cy="467.08" r="3" fill="#1f77b4" fill-opacity="0.7" /><circle cx="428.07" cy="453.43" r="3" fill="#1f77b4" fill-opacity="0.7" /><circle cx="95.32" cy="425.30" r="3" fill="#1f77b4" fill-opacity="0.7" /><circle cx="240.21" cy="427.60" r="3" fill="#1f77b4" fill-opacity="0.7" /><circle cx="186.28" cy="451.87" r="3" fill="#1f77b4" fill-opacity="0.7" /><circle cx="271.75" cy="453.91" r="3" fill="#1f77b4" fill-opacity="0.7" /><circle cx="156.07" cy="437.63" r="3" fill="#1f77b4" fill-opacity="0.7" /><circle cx="68.73" cy="395.53" r="3" fill="#1f77b4" fill-opacity="0.7" /><circle cx="60.00" cy="389.40" r="3" fill="#1f77b4" fill-opacity="0.7" /><circle cx="60.58" cy="371.28" r="3" fill="#1f77b4" fill-opacity="0.7" /><circle cx="264.27" cy="456.24" r="3" fill="#1f77b4" fill-opacity="0.7" /><circle cx="120.33" cy="489.98" r="3" fill="#1f77b4" fill-opacity="0.7" /><circle cx="363.50" cy="434.57" r="3" fill="#1f77b4" fill-opacity="0.7" /><circle cx="112.52" cy="441.04" r="3" fill="#1f77b4" fill-opacity="0.7" /><circle cx="84.85" cy="488.65" r="3" fill="#1f77b4" fill-opacity="0.7" /><circle cx="69.64" cy="458.21" r="3" fill="#1f77b4" fill-opacity="0.7" /><circle cx="105.79" cy="460.07" r="3" fill="#1f77b4" fill-opacity="0.7" /><circle cx="237.34" cy="376.23" r="3" fill="#1f77b4" fill-opacity="0.7" /><circle cx="100.55" cy="460.69" r="3" fill="#1f77b4" fill-opacity="0.7" /><circle cx="98.31" cy="395.89" r="3" fill="#1f77b4" fill-opacity="0.7" /><circle cx="154.41" cy="410.52" r="3" fill="#1f77b4" fill-opacity="0.7" /><circle cx="207.68" cy="412.69" r="3" fill="#1f77b4" fill-opacity="0.7" /><circle cx="130.56" cy="449.79" r="3" fill="#1f77b4" fill-opacity="0.7" />
  <text x="400.0" y="588" text-anchor="middle" font-size="13" font-family="Arial">Expected Value</text>
  <text x="18" y="300.0" text-anchor="middle" font-size="13" font-family="Arial" transform="rotate(-90 18 300.0)">Predicted Value</text>
</svg>
